<svg xmlns="http://www.w3.org/2000/svg" width="19.971" height="20" viewBox="0 0 19.971 20"><defs><style>.a{fill:#fff;}</style></defs><g transform="translate(-10.344 -2)"><g transform="translate(10.344 2)"><path class="a" d="M16.136,38.638a1.967,1.967,0,0,0-1.427-.654,2.034,2.034,0,0,0-1.444.65l-1.334,1.33c-.11-.059-.219-.114-.325-.169-.152-.076-.3-.148-.418-.224a14.5,14.5,0,0,1-3.474-3.166,8.553,8.553,0,0,1-1.14-1.8c.346-.317.667-.646.979-.962.118-.118.236-.241.355-.359a1.937,1.937,0,0,0,0-2.921L6.757,29.213c-.131-.131-.266-.266-.393-.4-.253-.262-.519-.532-.794-.785a2,2,0,0,0-1.414-.621,2.068,2.068,0,0,0-1.435.621l-.008.008L1.278,29.483a3.088,3.088,0,0,0-.916,1.963A7.4,7.4,0,0,0,.9,34.578a18.175,18.175,0,0,0,3.229,5.386,19.864,19.864,0,0,0,6.615,5.179,10.306,10.306,0,0,0,3.715,1.1c.089,0,.182.008.266.008A3.181,3.181,0,0,0,17.162,45.2c0-.008.013-.013.017-.021a9.6,9.6,0,0,1,.739-.764c.182-.173.367-.355.549-.545a2.106,2.106,0,0,0,.637-1.461,2.029,2.029,0,0,0-.65-1.448Zm1.511,4.445s0,0,0,0c-.165.177-.333.338-.515.515a11.1,11.1,0,0,0-.815.844,2.035,2.035,0,0,1-1.587.671c-.063,0-.131,0-.194,0a9.155,9.155,0,0,1-3.292-.988,18.751,18.751,0,0,1-6.23-4.88,17.137,17.137,0,0,1-3.039-5.061A6.027,6.027,0,0,1,1.5,31.539a1.938,1.938,0,0,1,.583-1.254l1.439-1.439a.96.96,0,0,1,.642-.3.9.9,0,0,1,.616.3l.013.013c.257.241.5.49.76.756.131.135.266.27.4.409l1.152,1.152a.806.806,0,0,1,0,1.309c-.122.122-.241.245-.363.363-.355.363-.692.7-1.06,1.03-.008.008-.017.013-.021.021a.861.861,0,0,0-.219.958l.013.038A9.252,9.252,0,0,0,6.82,37.115l0,0a15.493,15.493,0,0,0,3.748,3.411,5.763,5.763,0,0,0,.519.283c.152.076.3.148.418.224.017.008.034.021.051.03a.915.915,0,0,0,.418.106.9.9,0,0,0,.642-.291l1.444-1.444a.955.955,0,0,1,.637-.317.86.86,0,0,1,.608.308l.008.008,2.326,2.326A.835.835,0,0,1,17.647,43.083Z" transform="translate(-0.344 -26.249)"/><path class="a" d="M245.413,87.056a5.432,5.432,0,0,1,4.424,4.424.566.566,0,0,0,.561.473.752.752,0,0,0,.1-.008.57.57,0,0,0,.469-.658,6.569,6.569,0,0,0-5.352-5.352.573.573,0,0,0-.658.464A.564.564,0,0,0,245.413,87.056Z" transform="translate(-234.619 -82.298)"/><path class="a" d="M258.251,8.823A10.816,10.816,0,0,0,249.437.009a.569.569,0,1,0-.186,1.123,9.661,9.661,0,0,1,7.877,7.877.566.566,0,0,0,.561.473.753.753,0,0,0,.1-.008A.559.559,0,0,0,258.251,8.823Z" transform="translate(-238.289 0)"/></g></g></svg>