<svg xmlns="http://www.w3.org/2000/svg" xmlns:xlink="http://www.w3.org/1999/xlink"><defs><symbol viewBox="0 0 306 306" id="arrow-down"><path d="M94.35 0l-35.7 35.7L175.95 153 58.65 270.3l35.7 35.7 153-153z" /></symbol><symbol viewBox="0 0 19.971 20" id="phone"><defs><style>#phone .a{fill:#fff}</style></defs><path class="a" d="M15.792 12.389a1.967 1.967 0 00-1.427-.654 2.034 2.034 0 00-1.444.65l-1.334 1.33c-.11-.059-.219-.114-.325-.169-.152-.076-.3-.148-.418-.224a14.5 14.5 0 01-3.474-3.166 8.553 8.553 0 01-1.14-1.8c.346-.317.667-.646.979-.962.118-.118.236-.241.355-.359a1.937 1.937 0 000-2.921l-1.151-1.15c-.131-.131-.266-.266-.393-.4a19.007 19.007 0 00-.794-.785 2 2 0 00-1.414-.621 2.068 2.068 0 00-1.435.621l-.008.008L.934 3.234a3.088 3.088 0 00-.916 1.963 7.4 7.4 0 00.538 3.132 18.175 18.175 0 003.229 5.386 19.864 19.864 0 006.615 5.179 10.306 10.306 0 003.715 1.1c.089 0 .182.008.266.008a3.181 3.181 0 002.437-1.051c0-.008.013-.013.017-.021a9.6 9.6 0 01.739-.764c.182-.173.367-.355.549-.545a2.106 2.106 0 00.637-1.461 2.029 2.029 0 00-.65-1.448zm1.511 4.445c-.165.177-.333.338-.515.515a11.1 11.1 0 00-.815.844 2.035 2.035 0 01-1.587.671h-.194a9.155 9.155 0 01-3.292-.988 18.751 18.751 0 01-6.23-4.88 17.137 17.137 0 01-3.039-5.061 6.027 6.027 0 01-.475-2.645 1.938 1.938 0 01.583-1.254l1.439-1.439a.96.96 0 01.642-.3.9.9 0 01.616.3l.013.013c.257.241.5.49.76.756.131.135.266.27.4.409l1.152 1.152a.806.806 0 010 1.309c-.122.122-.241.245-.363.363-.355.363-.692.7-1.06 1.03-.008.008-.017.013-.021.021a.861.861 0 00-.219.958l.013.038a9.252 9.252 0 001.365 2.22 15.493 15.493 0 003.748 3.411 5.763 5.763 0 00.519.283c.152.076.3.148.418.224.017.008.034.021.051.03a.915.915 0 00.418.106.9.9 0 00.642-.291l1.444-1.444a.955.955 0 01.637-.317.86.86 0 01.608.308l.008.008 2.326 2.326a.835.835 0 01.008 1.324zM10.794 4.758a5.432 5.432 0 014.424 4.424.566.566 0 00.561.473.752.752 0 00.1-.008.57.57 0 00.469-.658 6.569 6.569 0 00-5.352-5.352.573.573 0 00-.658.464.564.564 0 00.456.657z" /><path class="a" d="M19.962 8.823A10.816 10.816 0 0011.148.009a.57.57 0 10-.186 1.123 9.661 9.661 0 017.877 7.877.566.566 0 00.561.473.753.753 0 00.1-.008.559.559 0 00.462-.651z" /></symbol><symbol viewBox="0 0 1000 1000" id="remove"><path d="M585.8 500l385.9-385.9c24.5-24.5 24.5-61.3 0-85.8s-61.3-24.5-85.8 0L500 414.3 114.1 28.4c-24.5-24.5-61.2-24.5-85.8 0-24.5 24.5-24.5 61.3 0 85.8L411.2 500 28.4 885.9c-24.5 24.5-24.5 61.3 0 85.8 9.2 12.3 27.6 18.4 42.9 18.4 15.3 0 30.6-6.1 42.9-18.4L500 585.8l385.9 385.9c12.3 12.3 27.6 18.4 42.9 18.4s30.6-6.1 42.9-18.4c24.5-24.5 24.5-61.3 0-85.8L585.8 500z" /></symbol><symbol viewBox="0 0 342.357 342.357" id="tick"><path d="M290.04 33.286L118.861 204.427l-66.541-66.52L0 190.226l118.862 118.845L342.357 85.606z" /></symbol></defs></svg>